<svg width="8" height="8" viewBox="0 0 8 8" fill="none" xmlns="http://www.w3.org/2000/svg">
<path d="M7.57474 2.67753L5.31264 2.47223L4.4293 0.29696C4.27039 -0.0989868 3.72824 -0.0989868 3.56933 0.29696L2.68599 2.47711L0.428564 2.67753C0.017273 2.71175 -0.150982 3.24946 0.16216 3.53297L1.87743 5.08743L1.36332 7.39468C1.26984 7.81507 1.7045 8.14747 2.05971 7.92261L3.99932 6.70055L5.93893 7.9275C6.29413 8.15236 6.72879 7.81996 6.63532 7.39957L6.1212 5.08743L7.83647 3.53297C8.14961 3.24946 7.98603 2.71175 7.57474 2.67753ZM3.99932 5.78645V1.24039L4.79853 3.21524L6.84564 3.40099L5.29395 4.8088L5.76132 6.90097L3.99932 5.78645Z" fill="#FFF72A"/>
</svg>
