{
  "accessors": [
    {
      "bufferView": 2,
      "componentType": 5126,
      "count": 65532,
      "max": [
        3.0387771129608154,
        0.3256239891052246,
        10.257973670959473
      ],
      "min": [
        -6.863715171813965,
        -8.561680793762207,
        -13.099621772766113
      ],
      "type": "VEC3"
    },
    {
      "bufferView": 2,
      "byteOffset": 786384,
      "componentType": 5126,
      "count": 65532,
      "max": [
        0.9999790191650391,
        0.9999977350234985,
        0.9998900890350342
      ],
      "min": [
        -0.9999829530715942,
        -0.9999960660934448,
        -0.9999561309814453
      ],
      "type": "VEC3"
    },
    {
      "bufferView": 1,
      "componentType": 5126,
      "count": 65532,
      "max": [
        0.999692976474762,
        0.9958490133285522
      ],
      "min": [
        0.00024399999529123306,
        0.0002859999949578196
      ],
      "type": "VEC2"
    },
    {
      "bufferView": 0,
      "componentType": 5125,
      "count": 299073,
      "type": "SCALAR"
    },
    {
      "bufferView": 2,
      "byteOffset": 1572768,
      "componentType": 5126,
      "count": 65532,
      "max": [
        3.8533689975738525,
        0.370278000831604,
        10.097023010253906
      ],
      "min": [
        -7.145299911499023,
        -8.415907859802246,
        -7.166886806488037
      ],
      "type": "VEC3"
    },
    {
      "bufferView": 2,
      "byteOffset": 2359152,
      "componentType": 5126,
      "count": 65532,
      "max": [
        0.9999231696128845,
        0.9999977350234985,
        0.9996446371078491
      ],
      "min": [
        -0.9999834895133972,
        -0.9999999403953552,
        -0.9997314214706421
      ],
      "type": "VEC3"
    },
    {
      "bufferView": 1,
      "byteOffset": 524256,
      "componentType": 5126,
      "count": 65532,
      "max": [
        0.9997360110282898,
        0.9997559785842896
      ],
      "min": [
        0.00024399999529123306,
        0.0002690000110305846
      ],
      "type": "VEC2"
    },
    {
      "bufferView": 0,
      "byteOffset": 1196292,
      "componentType": 5125,
      "count": 273798,
      "type": "SCALAR"
    },
    {
      "bufferView": 2,
      "byteOffset": 3145536,
      "componentType": 5126,
      "count": 51149,
      "max": [
        4.539877891540527,
        0.36182698607444763,
        9.747843742370605
      ],
      "min": [
        -6.672008991241455,
        -8.455977439880371,
        -7.085093021392822
      ],
      "type": "VEC3"
    },
    {
      "bufferView": 2,
      "byteOffset": 3759324,
      "componentType": 5126,
      "count": 51149,
      "max": [
        0.999974250793457,
        0.9999897480010986,
        0.999931275844574
      ],
      "min": [
        -0.9999834895133972,
        -0.9999999403953552,
        -0.9999743103981018
      ],
      "type": "VEC3"
    },
    {
      "bufferView": 1,
      "byteOffset": 1048512,
      "componentType": 5126,
      "count": 51149,
      "max": [
        0.9997450113296509,
        0.9864969849586487
      ],
      "min": [
        0.00024399999529123306,
        0.00025400001322850585
      ],
      "type": "VEC2"
    },
    {
      "bufferView": 0,
      "byteOffset": 2291484,
      "componentType": 5125,
      "count": 177051,
      "type": "SCALAR"
    }
  ],
  "asset": {
    "extras": {
      "author": "Ambel3D (https://sketchfab.com/Ambel3D)",
      "license": "CC-BY-4.0 (http://creativecommons.org/licenses/by/4.0/)",
      "source": "https://sketchfab.com/3d-models/nike-running-shoe-5cd1cb05a4ae432a8c4fb650ab3a8d72",
      "title": "Nike Running Shoe"
    },
    "generator": "Sketchfab-15.31.0",
    "version": "2.0"
  },
  "bufferViews": [
    {
      "buffer": 0,
      "byteLength": 2999688,
      "name": "floatBufferViews",
      "target": 34963
    },
    {
      "buffer": 0,
      "byteLength": 1457704,
      "byteOffset": 2999688,
      "byteStride": 8,
      "name": "floatBufferViews",
      "target": 34962
    },
    {
      "buffer": 0,
      "byteLength": 4373112,
      "byteOffset": 4457392,
      "byteStride": 12,
      "name": "floatBufferViews",
      "target": 34962
    }
  ],
  "buffers": [
    {
      "byteLength": 8830504,
      "uri": "scene.bin"
    }
  ],
  "extensionsUsed": [
    "KHR_materials_unlit"
  ],
  "images": [
    {
      "uri": "textures/tex_u1_v1_baseColor.jpeg"
    }
  ],
  "materials": [
    {
      "doubleSided": true,
      "extensions": {
        "KHR_materials_unlit": {}
      },
      "name": "tex_u1_v1",
      "pbrMetallicRoughness": {
        "baseColorTexture": {
          "index": 0
        },
        "metallicFactor": 0.0
      }
    }
  ],
  "meshes": [
    {
      "name": "Object_0",
      "primitives": [
        {
          "attributes": {
            "NORMAL": 1,
            "POSITION": 0,
            "TEXCOORD_0": 2
          },
          "indices": 3,
          "material": 0,
          "mode": 4
        }
      ]
    },
    {
      "name": "Object_1",
      "primitives": [
        {
          "attributes": {
            "NORMAL": 5,
            "POSITION": 4,
            "TEXCOORD_0": 6
          },
          "indices": 7,
          "material": 0,
          "mode": 4
        }
      ]
    },
    {
      "name": "Object_2",
      "primitives": [
        {
          "attributes": {
            "NORMAL": 9,
            "POSITION": 8,
            "TEXCOORD_0": 10
          },
          "indices": 11,
          "material": 0,
          "mode": 4
        }
      ]
    }
  ],
  "nodes": [
    {
      "children": [
        1
      ],
      "matrix": [
        0.21759524941444397,
        0.9760391116142273,
        2.1672421892975964e-16,
        0.0,
        0.0,
        2.220446049250313e-16,
        -1.0,
        0.0,
        -0.9760391116142273,
        0.21759524941444397,
        4.831585118979386e-17,
        0.0,
        0.0,
        0.0,
        0.0,
        1.0
      ],
      "name": "Sketchfab_model"
    },
    {
      "children": [
        2,
        3,
        4
      ],
      "name": "model.obj.cleaner.materialmerger.gles"
    },
    {
      "mesh": 0,
      "name": "Object_2"
    },
    {
      "mesh": 1,
      "name": "Object_3"
    },
    {
      "mesh": 2,
      "name": "Object_4"
    }
  ],
  "samplers": [
    {
      "magFilter": 9729,
      "minFilter": 9987,
      "wrapS": 10497,
      "wrapT": 10497
    }
  ],
  "scene": 0,
  "scenes": [
    {
      "name": "Sketchfab_Scene",
      "nodes": [
        0
      ]
    }
  ],
  "textures": [
    {
      "sampler": 0,
      "source": 0
    }
  ]
}
