{
  "accessors": [
    {
      "bufferView": 1,
      "componentType": 5126,
      "count": 65532,
      "max": [
        40.20547103881836,
        145.03857421875,
        34.281620025634766
      ],
      "min": [
        -47.11592102050781,
        -121.06575012207031,
        -37.131019592285156
      ],
      "type": "VEC3"
    },
    {
      "bufferView": 1,
      "byteOffset": 786384,
      "componentType": 5126,
      "count": 65532,
      "max": [
        0.9999462962150574,
        0.9999979734420776,
        0.9999905228614807
      ],
      "min": [
        -0.9999995827674866,
        -0.9985345005989075,
        -0.9968204498291016
      ],
      "type": "VEC3"
    },
    {
      "bufferView": 0,
      "componentType": 5125,
      "count": 355728,
      "type": "SCALAR"
    },
    {
      "bufferView": 1,
      "byteOffset": 1572768,
      "componentType": 5126,
      "count": 65532,
      "max": [
        17.043399810791016,
        144.92990112304688,
        55.34756088256836
      ],
      "min": [
        -53.91053771972656,
        -57.11772155761719,
        -48.63628005981445
      ],
      "type": "VEC3"
    },
    {
      "bufferView": 1,
      "byteOffset": 2359152,
      "componentType": 5126,
      "count": 65532,
      "max": [
        0.9287964701652527,
        0.9999621510505676,
        0.9999784827232361
      ],
      "min": [
        -0.9999741315841675,
        -0.964321494102478,
        -0.9999796152114868
      ],
      "type": "VEC3"
    },
    {
      "bufferView": 0,
      "byteOffset": 1422912,
      "componentType": 5125,
      "count": 362343,
      "type": "SCALAR"
    },
    {
      "bufferView": 1,
      "byteOffset": 3145536,
      "componentType": 5126,
      "count": 65532,
      "max": [
        42.4720573425293,
        145.0345458984375,
        55.37735366821289
      ],
      "min": [
        -58.989078521728516,
        -57.17599105834961,
        -56.24687576293945
      ],
      "type": "VEC3"
    },
    {
      "bufferView": 1,
      "byteOffset": 3931920,
      "componentType": 5126,
      "count": 65532,
      "max": [
        0.9996652603149414,
        0.9999979734420776,
        0.9999247789382935
      ],
      "min": [
        -0.9999937415122986,
        -0.9999222159385681,
        -0.9999387264251709
      ],
      "type": "VEC3"
    },
    {
      "bufferView": 0,
      "byteOffset": 2872284,
      "componentType": 5125,
      "count": 356736,
      "type": "SCALAR"
    },
    {
      "bufferView": 1,
      "byteOffset": 4718304,
      "componentType": 5126,
      "count": 65532,
      "max": [
        50.31134033203125,
        143.14788818359375,
        -20.632896423339844
      ],
      "min": [
        -59.90359115600586,
        -57.82890701293945,
        -62.8392448425293
      ],
      "type": "VEC3"
    },
    {
      "bufferView": 1,
      "byteOffset": 5504688,
      "componentType": 5126,
      "count": 65532,
      "max": [
        0.9999955296516418,
        0.9987928867340088,
        0.984129786491394
      ],
      "min": [
        -0.9999963045120239,
        -0.9019666910171509,
        -0.9999989867210388
      ],
      "type": "VEC3"
    },
    {
      "bufferView": 0,
      "byteOffset": 4299228,
      "componentType": 5125,
      "count": 361191,
      "type": "SCALAR"
    },
    {
      "bufferView": 1,
      "byteOffset": 6291072,
      "componentType": 5126,
      "count": 65532,
      "max": [
        49.926273345947266,
        143.14788818359375,
        42.786399841308594
      ],
      "min": [
        -59.16376876831055,
        -81.16283416748047,
        -63.351383209228516
      ],
      "type": "VEC3"
    },
    {
      "bufferView": 1,
      "byteOffset": 7077456,
      "componentType": 5126,
      "count": 65532,
      "max": [
        0.9999740719795227,
        0.9998605847358704,
        0.9998643398284912
      ],
      "min": [
        -0.9999947547912598,
        -0.999619722366333,
        -1.0
      ],
      "type": "VEC3"
    },
    {
      "bufferView": 0,
      "byteOffset": 5743992,
      "componentType": 5125,
      "count": 357993,
      "type": "SCALAR"
    },
    {
      "bufferView": 1,
      "byteOffset": 7863840,
      "componentType": 5126,
      "count": 65532,
      "max": [
        49.79957580566406,
        141.84658813476563,
        46.091304779052734
      ],
      "min": [
        -49.34943771362305,
        -81.85535430908203,
        -63.348297119140625
      ],
      "type": "VEC3"
    },
    {
      "bufferView": 1,
      "byteOffset": 8650224,
      "componentType": 5126,
      "count": 65532,
      "max": [
        0.9999952912330627,
        0.9998812079429626,
        0.9999968409538269
      ],
      "min": [
        -0.9999961256980896,
        -0.9999193549156189,
        -0.9999998807907104
      ],
      "type": "VEC3"
    },
    {
      "bufferView": 0,
      "byteOffset": 7175964,
      "componentType": 5125,
      "count": 357174,
      "type": "SCALAR"
    },
    {
      "bufferView": 1,
      "byteOffset": 9436608,
      "componentType": 5126,
      "count": 65532,
      "max": [
        51.8205680847168,
        141.64694213867188,
        55.15211868286133
      ],
      "min": [
        -49.4200325012207,
        -134.647216796875,
        -62.241241455078125
      ],
      "type": "VEC3"
    },
    {
      "bufferView": 1,
      "byteOffset": 10222992,
      "componentType": 5126,
      "count": 65532,
      "max": [
        0.9999977350234985,
        0.9999067783355713,
        0.9999977946281433
      ],
      "min": [
        -0.9999802112579346,
        -0.9999193549156189,
        -0.999997079372406
      ],
      "type": "VEC3"
    },
    {
      "bufferView": 0,
      "byteOffset": 8604660,
      "componentType": 5125,
      "count": 341331,
      "type": "SCALAR"
    },
    {
      "bufferView": 1,
      "byteOffset": 11009376,
      "componentType": 5126,
      "count": 65532,
      "max": [
        44.50989532470703,
        97.79347229003906,
        57.36281204223633
      ],
      "min": [
        -49.567100524902344,
        -131.59982299804688,
        -62.24934005737305
      ],
      "type": "VEC3"
    },
    {
      "bufferView": 1,
      "byteOffset": 11795760,
      "componentType": 5126,
      "count": 65532,
      "max": [
        0.9999891519546509,
        0.9999758005142212,
        0.9999845623970032
      ],
      "min": [
        -0.999999463558197,
        -0.9999852180480957,
        -0.9999997019767761
      ],
      "type": "VEC3"
    },
    {
      "bufferView": 0,
      "byteOffset": 9969984,
      "componentType": 5125,
      "count": 339948,
      "type": "SCALAR"
    },
    {
      "bufferView": 1,
      "byteOffset": 12582144,
      "componentType": 5126,
      "count": 65532,
      "max": [
        57.173439025878906,
        60.32051086425781,
        34.27602767944336
      ],
      "min": [
        -49.70759201049805,
        -141.92184448242188,
        -62.622379302978516
      ],
      "type": "VEC3"
    },
    {
      "bufferView": 1,
      "byteOffset": 13368528,
      "componentType": 5126,
      "count": 65532,
      "max": [
        0.9999991655349731,
        0.9999225735664368,
        0.9996220469474792
      ],
      "min": [
        -0.999994695186615,
        -0.9986807703971863,
        -1.0
      ],
      "type": "VEC3"
    },
    {
      "bufferView": 0,
      "byteOffset": 11329776,
      "componentType": 5125,
      "count": 348681,
      "type": "SCALAR"
    },
    {
      "bufferView": 1,
      "byteOffset": 14154912,
      "componentType": 5126,
      "count": 65532,
      "max": [
        59.43082809448242,
        82.24331665039063,
        57.66984176635742
      ],
      "min": [
        -16.23521614074707,
        -113.10636901855469,
        -22.149002075195313
      ],
      "type": "VEC3"
    },
    {
      "bufferView": 1,
      "byteOffset": 14941296,
      "componentType": 5126,
      "count": 65532,
      "max": [
        0.9999989867210388,
        0.9999904036521912,
        0.999919056892395
      ],
      "min": [
        -0.9994878172874451,
        -0.999998152256012,
        -0.9999120235443115
      ],
      "type": "VEC3"
    },
    {
      "bufferView": 0,
      "byteOffset": 12724500,
      "componentType": 5125,
      "count": 354177,
      "type": "SCALAR"
    },
    {
      "bufferView": 1,
      "byteOffset": 15727680,
      "componentType": 5126,
      "count": 65532,
      "max": [
        45.89462661743164,
        57.45914077758789,
        44.149356842041016
      ],
      "min": [
        -49.791805267333984,
        -143.26473999023438,
        -63.20172119140625
      ],
      "type": "VEC3"
    },
    {
      "bufferView": 1,
      "byteOffset": 16514064,
      "componentType": 5126,
      "count": 65532,
      "max": [
        0.9999992251396179,
        0.996341347694397,
        0.9999997019767761
      ],
      "min": [
        -0.9999995231628418,
        -0.9825350642204285,
        -0.9999985694885254
      ],
      "type": "VEC3"
    },
    {
      "bufferView": 0,
      "byteOffset": 14141208,
      "componentType": 5125,
      "count": 349125,
      "type": "SCALAR"
    },
    {
      "bufferView": 1,
      "byteOffset": 17300448,
      "componentType": 5126,
      "count": 65532,
      "max": [
        59.90359115600586,
        79.58167266845703,
        50.877506256103516
      ],
      "min": [
        -49.811710357666016,
        -134.647216796875,
        -62.07604217529297
      ],
      "type": "VEC3"
    },
    {
      "bufferView": 1,
      "byteOffset": 18086832,
      "componentType": 5126,
      "count": 65532,
      "max": [
        0.9999985098838806,
        0.9998633861541748,
        0.9998981952667236
      ],
      "min": [
        -0.999984860420227,
        -0.9999338984489441,
        -1.0
      ],
      "type": "VEC3"
    },
    {
      "bufferView": 0,
      "byteOffset": 15537708,
      "componentType": 5125,
      "count": 346830,
      "type": "SCALAR"
    },
    {
      "bufferView": 1,
      "byteOffset": 18873216,
      "componentType": 5126,
      "count": 65532,
      "max": [
        46.1063346862793,
        77.90727233886719,
        44.63945388793945
      ],
      "min": [
        -49.858890533447266,
        -145.03857421875,
        -62.01774597167969
      ],
      "type": "VEC3"
    },
    {
      "bufferView": 1,
      "byteOffset": 19659600,
      "componentType": 5126,
      "count": 65532,
      "max": [
        0.999955952167511,
        0.999546229839325,
        0.9999234676361084
      ],
      "min": [
        -0.9999785423278809,
        -0.9999374151229858,
        -1.0
      ],
      "type": "VEC3"
    },
    {
      "bufferView": 0,
      "byteOffset": 16925028,
      "componentType": 5125,
      "count": 341682,
      "type": "SCALAR"
    },
    {
      "bufferView": 1,
      "byteOffset": 20445984,
      "componentType": 5126,
      "count": 65532,
      "max": [
        54.90190505981445,
        129.74612426757813,
        45.457855224609375
      ],
      "min": [
        -49.98199462890625,
        -144.89260864257813,
        -63.06084442138672
      ],
      "type": "VEC3"
    },
    {
      "bufferView": 1,
      "byteOffset": 21232368,
      "componentType": 5126,
      "count": 65532,
      "max": [
        0.9999880194664001,
        0.9999306201934814,
        0.9999637603759766
      ],
      "min": [
        -0.9999982714653015,
        -0.9999523758888245,
        -0.9999985694885254
      ],
      "type": "VEC3"
    },
    {
      "bufferView": 0,
      "byteOffset": 18291756,
      "componentType": 5125,
      "count": 349431,
      "type": "SCALAR"
    },
    {
      "bufferView": 1,
      "byteOffset": 22018752,
      "componentType": 5126,
      "count": 65532,
      "max": [
        43.3430290222168,
        133.43258666992188,
        57.7994499206543
      ],
      "min": [
        -48.981746673583984,
        -140.33981323242188,
        -62.470741271972656
      ],
      "type": "VEC3"
    },
    {
      "bufferView": 1,
      "byteOffset": 22805136,
      "componentType": 5126,
      "count": 65532,
      "max": [
        0.9999951124191284,
        0.999984622001648,
        0.9999824166297913
      ],
      "min": [
        -0.9999943971633911,
        -0.9999794960021973,
        -0.9999854564666748
      ],
      "type": "VEC3"
    },
    {
      "bufferView": 0,
      "byteOffset": 19689480,
      "componentType": 5125,
      "count": 337890,
      "type": "SCALAR"
    },
    {
      "bufferView": 1,
      "byteOffset": 23591520,
      "componentType": 5126,
      "count": 65532,
      "max": [
        48.34223937988281,
        57.95267868041992,
        58.08803176879883
      ],
      "min": [
        -49.90974044799805,
        -144.98538208007813,
        -62.433387756347656
      ],
      "type": "VEC3"
    },
    {
      "bufferView": 1,
      "byteOffset": 24377904,
      "componentType": 5126,
      "count": 65532,
      "max": [
        0.9999998807907104,
        0.9998981356620789,
        0.999991774559021
      ],
      "min": [
        -0.9999967217445374,
        -0.9999963641166687,
        -0.9999996423721313
      ],
      "type": "VEC3"
    },
    {
      "bufferView": 0,
      "byteOffset": 21041040,
      "componentType": 5125,
      "count": 330612,
      "type": "SCALAR"
    },
    {
      "bufferView": 1,
      "byteOffset": 25164288,
      "componentType": 5126,
      "count": 65532,
      "max": [
        59.6750602722168,
        97.76873016357422,
        58.3038444519043
      ],
      "min": [
        -33.662109375,
        -145.0279541015625,
        -63.332645416259766
      ],
      "type": "VEC3"
    },
    {
      "bufferView": 1,
      "byteOffset": 25950672,
      "componentType": 5126,
      "count": 65532,
      "max": [
        0.9999951124191284,
        0.9999685883522034,
        0.999901294708252
      ],
      "min": [
        -0.999984860420227,
        -0.9999907612800598,
        -0.9999984502792358
      ],
      "type": "VEC3"
    },
    {
      "bufferView": 0,
      "byteOffset": 22363488,
      "componentType": 5125,
      "count": 253074,
      "type": "SCALAR"
    },
    {
      "bufferView": 1,
      "byteOffset": 26737056,
      "componentType": 5126,
      "count": 65532,
      "max": [
        44.117740631103516,
        102.54131317138672,
        57.7818717956543
      ],
      "min": [
        -39.51301574707031,
        -129.4677276611328,
        -63.34483337402344
      ],
      "type": "VEC3"
    },
    {
      "bufferView": 1,
      "byteOffset": 27523440,
      "componentType": 5126,
      "count": 65532,
      "max": [
        0.9999840259552002,
        0.9999544024467468,
        0.9999718070030212
      ],
      "min": [
        -0.9999033212661743,
        -0.999643087387085,
        -1.0
      ],
      "type": "VEC3"
    },
    {
      "bufferView": 0,
      "byteOffset": 23375784,
      "componentType": 5125,
      "count": 342792,
      "type": "SCALAR"
    },
    {
      "bufferView": 1,
      "byteOffset": 28309824,
      "componentType": 5126,
      "count": 65532,
      "max": [
        33.56409454345703,
        119.48699951171875,
        63.14632797241211
      ],
      "min": [
        -49.66328430175781,
        -116.95865631103516,
        -60.026493072509766
      ],
      "type": "VEC3"
    },
    {
      "bufferView": 1,
      "byteOffset": 29096208,
      "componentType": 5126,
      "count": 65532,
      "max": [
        0.9999322891235352,
        0.9999327063560486,
        0.9999871253967285
      ],
      "min": [
        -0.9999943971633911,
        -0.9999778270721436,
        -0.9999957084655762
      ],
      "type": "VEC3"
    },
    {
      "bufferView": 0,
      "byteOffset": 24746952,
      "componentType": 5125,
      "count": 348360,
      "type": "SCALAR"
    },
    {
      "bufferView": 1,
      "byteOffset": 29882592,
      "componentType": 5126,
      "count": 65532,
      "max": [
        13.920822143554688,
        145.02178955078125,
        40.03495407104492
      ],
      "min": [
        -49.91383361816406,
        -136.7210693359375,
        -60.81986999511719
      ],
      "type": "VEC3"
    },
    {
      "bufferView": 1,
      "byteOffset": 30668976,
      "componentType": 5126,
      "count": 65532,
      "max": [
        0.999993622303009,
        0.999968945980072,
        0.9999879598617554
      ],
      "min": [
        -0.9999876022338867,
        -0.9999852180480957,
        -0.9999746084213257
      ],
      "type": "VEC3"
    },
    {
      "bufferView": 0,
      "byteOffset": 26140392,
      "componentType": 5125,
      "count": 320184,
      "type": "SCALAR"
    },
    {
      "bufferView": 1,
      "byteOffset": 31455360,
      "componentType": 5126,
      "count": 65532,
      "max": [
        20.05738067626953,
        143.9481201171875,
        62.53524398803711
      ],
      "min": [
        -55.10123062133789,
        -125.1787338256836,
        -58.75349044799805
      ],
      "type": "VEC3"
    },
    {
      "bufferView": 1,
      "byteOffset": 32241744,
      "componentType": 5126,
      "count": 65532,
      "max": [
        0.9999737739562988,
        0.9999427795410156,
        0.9999876022338867
      ],
      "min": [
        -0.999994695186615,
        -0.9999933242797852,
        -0.9999796152114868
      ],
      "type": "VEC3"
    },
    {
      "bufferView": 0,
      "byteOffset": 27421128,
      "componentType": 5125,
      "count": 265974,
      "type": "SCALAR"
    },
    {
      "bufferView": 1,
      "byteOffset": 33028128,
      "componentType": 5126,
      "count": 65532,
      "max": [
        47.5179557800293,
        138.95443725585938,
        63.351383209228516
      ],
      "min": [
        -59.90079879760742,
        -131.55120849609375,
        -55.57320785522461
      ],
      "type": "VEC3"
    },
    {
      "bufferView": 1,
      "byteOffset": 33814512,
      "componentType": 5126,
      "count": 65532,
      "max": [
        0.9998769760131836,
        0.9999758005142212,
        0.9999171495437622
      ],
      "min": [
        -0.9999681115150452,
        -0.9999842643737793,
        -0.999427855014801
      ],
      "type": "VEC3"
    },
    {
      "bufferView": 0,
      "byteOffset": 28485024,
      "componentType": 5125,
      "count": 265365,
      "type": "SCALAR"
    },
    {
      "bufferView": 1,
      "byteOffset": 34600896,
      "componentType": 5126,
      "count": 65532,
      "max": [
        43.42607498168945,
        144.771240234375,
        63.277347564697266
      ],
      "min": [
        -59.131221771240234,
        -135.14163208007813,
        -61.103050231933594
      ],
      "type": "VEC3"
    },
    {
      "bufferView": 1,
      "byteOffset": 35387280,
      "componentType": 5126,
      "count": 65532,
      "max": [
        0.999993622303009,
        0.999984622001648,
        0.9999920725822449
      ],
      "min": [
        -0.9999963045120239,
        -0.9996541738510132,
        -0.9999951124191284
      ],
      "type": "VEC3"
    },
    {
      "bufferView": 0,
      "byteOffset": 29546484,
      "componentType": 5125,
      "count": 221772,
      "type": "SCALAR"
    },
    {
      "bufferView": 1,
      "byteOffset": 36173664,
      "componentType": 5126,
      "count": 65532,
      "max": [
        57.07237243652344,
        142.57742309570313,
        50.06059265136719
      ],
      "min": [
        -56.54295349121094,
        -144.2069091796875,
        -63.13121032714844
      ],
      "type": "VEC3"
    },
    {
      "bufferView": 1,
      "byteOffset": 36960048,
      "componentType": 5126,
      "count": 65532,
      "max": [
        0.9999905228614807,
        0.9999904036521912,
        0.9999728202819824
      ],
      "min": [
        -0.999957799911499,
        -0.9999834299087524,
        -0.9999867677688599
      ],
      "type": "VEC3"
    },
    {
      "bufferView": 0,
      "byteOffset": 30433572,
      "componentType": 5125,
      "count": 197631,
      "type": "SCALAR"
    },
    {
      "bufferView": 1,
      "byteOffset": 37746432,
      "componentType": 5126,
      "count": 13035,
      "max": [
        47.44684600830078,
        119.32818603515625,
        6.911693572998047
      ],
      "min": [
        -49.4503288269043,
        -145.03134155273438,
        -55.1485481262207
      ],
      "type": "VEC3"
    },
    {
      "bufferView": 1,
      "byteOffset": 37902852,
      "componentType": 5126,
      "count": 13035,
      "max": [
        0.999986469745636,
        0.9623897671699524,
        0.9999642372131348
      ],
      "min": [
        -0.9999943375587463,
        -0.9999450445175171,
        -0.9943708181381226
      ],
      "type": "VEC3"
    },
    {
      "bufferView": 0,
      "byteOffset": 31224096,
      "componentType": 5125,
      "count": 31035,
      "type": "SCALAR"
    }
  ],
  "asset": {
    "extras": {
      "author": "Andrea Spognetta (Spogna) (https://sketchfab.com/spogna)",
      "license": "CC-BY-4.0 (http://creativecommons.org/licenses/by/4.0/)",
      "source": "https://sketchfab.com/3d-models/adidas-shoe-rawscan-no-texture-ff89973bbc5242a9bd428b7858084dcd",
      "title": "Adidas shoe .::RAWscan::. NO TEXTURE"
    },
    "generator": "Sketchfab-16.59.0",
    "version": "2.0"
  },
  "bufferViews": [
    {
      "buffer": 0,
      "byteLength": 31348236,
      "name": "floatBufferViews",
      "target": 34963
    },
    {
      "buffer": 0,
      "byteLength": 38059272,
      "byteOffset": 31348236,
      "byteStride": 12,
      "name": "floatBufferViews",
      "target": 34962
    }
  ],
  "buffers": [
    {
      "byteLength": 69407508,
      "uri": "scene.bin"
    }
  ],
  "materials": [
    {
      "doubleSided": true,
      "name": "Scene_-_Root",
      "pbrMetallicRoughness": {
        "metallicFactor": 0.0,
        "roughnessFactor": 0.6
      }
    }
  ],
  "meshes": [
    {
      "name": "Object_0",
      "primitives": [
        {
          "attributes": {
            "NORMAL": 1,
            "POSITION": 0
          },
          "indices": 2,
          "material": 0,
          "mode": 4
        }
      ]
    },
    {
      "name": "Object_1",
      "primitives": [
        {
          "attributes": {
            "NORMAL": 4,
            "POSITION": 3
          },
          "indices": 5,
          "material": 0,
          "mode": 4
        }
      ]
    },
    {
      "name": "Object_2",
      "primitives": [
        {
          "attributes": {
            "NORMAL": 7,
            "POSITION": 6
          },
          "indices": 8,
          "material": 0,
          "mode": 4
        }
      ]
    },
    {
      "name": "Object_3",
      "primitives": [
        {
          "attributes": {
            "NORMAL": 10,
            "POSITION": 9
          },
          "indices": 11,
          "material": 0,
          "mode": 4
        }
      ]
    },
    {
      "name": "Object_4",
      "primitives": [
        {
          "attributes": {
            "NORMAL": 13,
            "POSITION": 12
          },
          "indices": 14,
          "material": 0,
          "mode": 4
        }
      ]
    },
    {
      "name": "Object_5",
      "primitives": [
        {
          "attributes": {
            "NORMAL": 16,
            "POSITION": 15
          },
          "indices": 17,
          "material": 0,
          "mode": 4
        }
      ]
    },
    {
      "name": "Object_6",
      "primitives": [
        {
          "attributes": {
            "NORMAL": 19,
            "POSITION": 18
          },
          "indices": 20,
          "material": 0,
          "mode": 4
        }
      ]
    },
    {
      "name": "Object_7",
      "primitives": [
        {
          "attributes": {
            "NORMAL": 22,
            "POSITION": 21
          },
          "indices": 23,
          "material": 0,
          "mode": 4
        }
      ]
    },
    {
      "name": "Object_8",
      "primitives": [
        {
          "attributes": {
            "NORMAL": 25,
            "POSITION": 24
          },
          "indices": 26,
          "material": 0,
          "mode": 4
        }
      ]
    },
    {
      "name": "Object_9",
      "primitives": [
        {
          "attributes": {
            "NORMAL": 28,
            "POSITION": 27
          },
          "indices": 29,
          "material": 0,
          "mode": 4
        }
      ]
    },
    {
      "name": "Object_10",
      "primitives": [
        {
          "attributes": {
            "NORMAL": 31,
            "POSITION": 30
          },
          "indices": 32,
          "material": 0,
          "mode": 4
        }
      ]
    },
    {
      "name": "Object_11",
      "primitives": [
        {
          "attributes": {
            "NORMAL": 34,
            "POSITION": 33
          },
          "indices": 35,
          "material": 0,
          "mode": 4
        }
      ]
    },
    {
      "name": "Object_12",
      "primitives": [
        {
          "attributes": {
            "NORMAL": 37,
            "POSITION": 36
          },
          "indices": 38,
          "material": 0,
          "mode": 4
        }
      ]
    },
    {
      "name": "Object_13",
      "primitives": [
        {
          "attributes": {
            "NORMAL": 40,
            "POSITION": 39
          },
          "indices": 41,
          "material": 0,
          "mode": 4
        }
      ]
    },
    {
      "name": "Object_14",
      "primitives": [
        {
          "attributes": {
            "NORMAL": 43,
            "POSITION": 42
          },
          "indices": 44,
          "material": 0,
          "mode": 4
        }
      ]
    },
    {
      "name": "Object_15",
      "primitives": [
        {
          "attributes": {
            "NORMAL": 46,
            "POSITION": 45
          },
          "indices": 47,
          "material": 0,
          "mode": 4
        }
      ]
    },
    {
      "name": "Object_16",
      "primitives": [
        {
          "attributes": {
            "NORMAL": 49,
            "POSITION": 48
          },
          "indices": 50,
          "material": 0,
          "mode": 4
        }
      ]
    },
    {
      "name": "Object_17",
      "primitives": [
        {
          "attributes": {
            "NORMAL": 52,
            "POSITION": 51
          },
          "indices": 53,
          "material": 0,
          "mode": 4
        }
      ]
    },
    {
      "name": "Object_18",
      "primitives": [
        {
          "attributes": {
            "NORMAL": 55,
            "POSITION": 54
          },
          "indices": 56,
          "material": 0,
          "mode": 4
        }
      ]
    },
    {
      "name": "Object_19",
      "primitives": [
        {
          "attributes": {
            "NORMAL": 58,
            "POSITION": 57
          },
          "indices": 59,
          "material": 0,
          "mode": 4
        }
      ]
    },
    {
      "name": "Object_20",
      "primitives": [
        {
          "attributes": {
            "NORMAL": 61,
            "POSITION": 60
          },
          "indices": 62,
          "material": 0,
          "mode": 4
        }
      ]
    },
    {
      "name": "Object_21",
      "primitives": [
        {
          "attributes": {
            "NORMAL": 64,
            "POSITION": 63
          },
          "indices": 65,
          "material": 0,
          "mode": 4
        }
      ]
    },
    {
      "name": "Object_22",
      "primitives": [
        {
          "attributes": {
            "NORMAL": 67,
            "POSITION": 66
          },
          "indices": 68,
          "material": 0,
          "mode": 4
        }
      ]
    },
    {
      "name": "Object_23",
      "primitives": [
        {
          "attributes": {
            "NORMAL": 70,
            "POSITION": 69
          },
          "indices": 71,
          "material": 0,
          "mode": 4
        }
      ]
    },
    {
      "name": "Object_24",
      "primitives": [
        {
          "attributes": {
            "NORMAL": 73,
            "POSITION": 72
          },
          "indices": 74,
          "material": 0,
          "mode": 4
        }
      ]
    }
  ],
  "nodes": [
    {
      "children": [
        1
      ],
      "matrix": [
        2.220446049250313e-16,
        -2.220446049250313e-16,
        1.0,
        0.0,
        1.0,
        4.930380657631324e-32,
        -2.220446049250313e-16,
        0.0,
        0.0,
        1.0,
        2.220446049250313e-16,
        0.0,
        0.0,
        0.0,
        0.0,
        1.0
      ],
      "name": "Sketchfab_model"
    },
    {
      "children": [
        2,
        3,
        4,
        5,
        6,
        7,
        8,
        9,
        10,
        11,
        12,
        13,
        14,
        15,
        16,
        17,
        18,
        19,
        20,
        21,
        22,
        23,
        24,
        25,
        26
      ],
      "name": "Geode"
    },
    {
      "mesh": 0,
      "name": "Object_2"
    },
    {
      "mesh": 1,
      "name": "Object_3"
    },
    {
      "mesh": 2,
      "name": "Object_4"
    },
    {
      "mesh": 3,
      "name": "Object_5"
    },
    {
      "mesh": 4,
      "name": "Object_6"
    },
    {
      "mesh": 5,
      "name": "Object_7"
    },
    {
      "mesh": 6,
      "name": "Object_8"
    },
    {
      "mesh": 7,
      "name": "Object_9"
    },
    {
      "mesh": 8,
      "name": "Object_10"
    },
    {
      "mesh": 9,
      "name": "Object_11"
    },
    {
      "mesh": 10,
      "name": "Object_12"
    },
    {
      "mesh": 11,
      "name": "Object_13"
    },
    {
      "mesh": 12,
      "name": "Object_14"
    },
    {
      "mesh": 13,
      "name": "Object_15"
    },
    {
      "mesh": 14,
      "name": "Object_16"
    },
    {
      "mesh": 15,
      "name": "Object_17"
    },
    {
      "mesh": 16,
      "name": "Object_18"
    },
    {
      "mesh": 17,
      "name": "Object_19"
    },
    {
      "mesh": 18,
      "name": "Object_20"
    },
    {
      "mesh": 19,
      "name": "Object_21"
    },
    {
      "mesh": 20,
      "name": "Object_22"
    },
    {
      "mesh": 21,
      "name": "Object_23"
    },
    {
      "mesh": 22,
      "name": "Object_24"
    },
    {
      "mesh": 23,
      "name": "Object_25"
    },
    {
      "mesh": 24,
      "name": "Object_26"
    }
  ],
  "scene": 0,
  "scenes": [
    {
      "name": "Sketchfab_Scene",
      "nodes": [
        0
      ]
    }
  ]
}
